# xmcd
#
# Track frame offsets: 
#        150
#        16545
#        33997
#        48734
#        59121
#        77451
#        97986
#        134991
#        154348
#        177508
#
# Disc length: 2568 seconds
#
# Revision: 0
# Processed by: cddbd v1.5.2PL0 Copyright (c) Steve Scherf et al.
# Submitted via: ExactAudioCopy v1.0b3
#
DISCID=850a060a
DTITLE=Robert Earl Keen - Walking Distance
DYEAR=1998
DGENRE=Country
TTITLE0=Down That Dusty Trail
TTITLE1=Travelin' Light
TTITLE2=Feelin' Good Again
TTITLE3=That Buckin' Song
TTITLE4=I;ll Be Here For You
TTITLE5=Billy Gray
TTITLE6=Theme: Road To No Return - Carolina
TTITLE7=New Life In Old Mexico
TTITLE8=Still Witthout You - Conclusion: Road To No Return
TTITLE9=Happy Holidays Y'all
EXTD=
EXTT0=
EXTT1=
EXTT2=
EXTT3=
EXTT4=
EXTT5=
EXTT6=
EXTT7=
EXTT8=
EXTT9=
PLAYORDER=
